<?xml version="1.0" encoding="UTF-8"?>
<svg id="Calque_2" data-name="Calque 2" xmlns="http://www.w3.org/2000/svg" viewBox="0 0 404.68 117.99">
  <defs>
  
    <style>
    
      .cls-1 {
        fill: #9b1e24;
      }
      
      .cls-2 {
        fill: #fff;
        font-family: MontserratRoman-Bold, Montserrat;
        font-size: 106.4px;
        font-variation-settings: 'wght' 700;
        font-weight: 700;
      }
    </style>
  </defs>
  <g id="Calque_1-2" data-name="Calque 1">
    <path class="cls-1" d="M91.73,90.54c-7.13,.03-14.26,0-21.39,.02-2.82-4.45-5.52-8.96-8.24-13.46-8.95-14.76-17.87-29.54-26.83-44.3,3.51-5.74,6.97-11.51,10.52-17.23h.32c15.2,25,30.42,49.98,45.63,74.97Z"/>
    <path class="cls-1" d="M31.79,38.64c3.55,5.86,7.13,11.7,10.63,17.59-7.02,11.41-13.99,22.86-20.95,34.31-7.16,.03-14.31,.02-21.47,0,6.39-10.41,12.74-20.86,19.12-31.28,4.24-6.86,8.34-13.82,12.67-20.63h0Z"/>
    <text class="cls-2" transform="translate(94.32 90.44)"><tspan x="0" y="0">DMIN</tspan></text>
  </g>
</svg>