<?xml version="1.0" encoding="UTF-8"?>
<svg id="Layer_1" data-name="Layer 1" xmlns="http://www.w3.org/2000/svg" viewBox="0 0 1888.61 351.81">
  <defs>
    <style>
      .cls-1 {
        fill: #fff;
      }
    </style>
  </defs>
  <path class="cls-1" d="M1886.93,205.07s1.43,8.54,1.43,21.36c0,21.17-3.9,54.01-24.56,79.24-3.07,4.11-6.44,7.98-10.12,11.57-16.43,16.84-38.89,27.32-62.16,30.12-10.29,1.46-20.7,.91-31.05,.99-72.37,0-144.76,.02-217.15,0v-84.52c77.94,0,155.89-.08,233.83,.04,6.25,.51,12.53-1.78,16.92-6.25,9.35-8.67,8.9-25.03-.88-33.19-5.15-5.02-12.56-5.92-19.41-5.42-39.81,.12-79.61,0-119.43,.07-13.14,.01-26.37-1.64-38.87-5.84-33.63-11.19-60.84-40.23-69.17-74.76-8.24-32.35-.35-68.51,21.38-94,15.55-19.16,38.08-31.96,62.13-36.98,27.55,27.28,55.01,54.65,82.35,82.16-20.42,.29-40.83-.03-61.25,.14-8.02,0-16.05,4.08-20.11,11.12-5.48,8.31-3.46,20.22,3.76,26.85,4.61,4.88,11.62,6.3,18.09,6.19,48.67-.09,97.34,0,146.02-.05,0,0,.18,0,.53,.01,.75,.01,1.5,.06,2.24,.14,13.71,1.06,74.18,9.2,85.48,71.01Z"/>
  <path class="cls-1" d="M1883.14,.25V84.79c-41.48,0-82.97,0-124.44,.02-4.13,.64-6.58-3.17-9.25-5.57-26.29-26.41-52.66-52.76-79.15-78.99h212.84Z"/>
  <path class="cls-1" d="M1503.73,196.08c2.21,2.68,6.97,6.88,10.16,4.18,.04-.03,.06-.07,.06-.12,.46-7.1,.48-14.24,.04-21.35-.89-14.39-3.69-28.66-8.63-42.18-.05-.15-.27-.13-.3,.03-1.11,7.3-6.03,14.55-2.38,21.92,2.47,4.64,4.17,12.46-2.25,14.64-.08,.02-.12,.1-.1,.18,1.66,5.54,2.33,11.26,3.23,16.94,.03,.19,.3,.18,.31-.01,.2-6.43,4.02-11.94,5.86-18.08,.04-.13,.21-.16,.28-.05,1.48,2.07,2.13,4.36,2.33,6.73,.34,4.24-.79,8.78-1.3,12.93-.01,.04-.02,.06-.04,.09-1.77,2.2-4.87,2.62-7.22,3.91-.09,.05-.12,.16-.05,.24Zm-155.88-71.17c-.07,.08-.2,.07-.25-.03-2.45-4.35-7.14-6.48-10.79-9.62-2.15-2.36-5.1-.02-7.59,.13-6.87,.55-10.14,7.08-13.85,11.97-.09,.11,.02,.27,.16,.23,7.1-1.68,14.37-2.58,21.66-2.86,.06,0,.11,.02,.14,.07,2.07,2.97,4.04,5.98,6.03,9,.03,.05,.09,.07,.14,.07,10.43-.65,20.76,.24,30.89,2.79,5.92,1.96,8.66-4.18,9.1-8.99,0-.1-.06-.18-.16-.18-3.98,.04-7.95,.36-11.91,.19-.04,0-.08-.02-.11-.04-2.98-2.45-4.28-6.64-7.91-8.45-.11-.05-.25,.04-.24,.16,.17,2.57,.55,5.14,.84,7.69,.01,.09-.06,.18-.15,.18-2.53,.16-5.04,.24-7.54,.21-.06,0-.12-.04-.14-.1-1.56-3.49-2.52-7.2-3.81-10.77-.01-.03-.02-.05-.04-.07-3.18-2.89-6.97-5.13-11.03-6.49,2.24,4.62,6.91,6.96,10.91,9.8,.08,.05,.09,.16,.02,.23-1.5,1.61-2.95,3.24-4.37,4.88Zm-102.34-44.44c1.17-.6,2.96-1.49,4.12-2.08,.13-.07,.28,.08,.21,.22-2.5,5.08-6,9.63-7.63,15.13-.01,.02-.02,.04-.04,.06-3.78,4.02-9.68,5.29-14.92,6.36-.04,.01-.08,.04-.11,.08-1.61,3.21-1.89,7.51-5.27,9.48-3.76,2.26-7.31,5.07-9.21,9.14-7.61,15.31-12.33,31.93-14.7,48.84h-.01c-.51,7.77,4.55,14.36,7.23,21.31,2.46,9.31,14.14,10.79,19.41,17.68,2.99,6.04-7.31,7.74-5.19,13.51,1.5,5.03,2.79,10.15,3.2,15.4,0,.06-.02,.11-.06,.14-1.71,1.46-3.4,2.91-5.03,4.42-.04,.03-.06,.08-.05,.13,.72,4.54,.75,9.13,.39,13.7-.78,7.79,2.7,15.31,6.71,21.78,9.96,19.04,26.84,33.35,44.21,45.45,5.55,4.33,12.89,4.41,19.54,5.54,11.14,1.01,22.13,3.16,33.15,4.99,8.14,1.04,16.55-.15,24.52,2.25,7.11,1.61,14.27,5.16,21.68,2.95,9.73-2.7,19.82-.73,29.71-1.44h.03c8.64-1.89,17.82-1.88,25.99-5.67,5.44-2.39,11.19-4.06,16.4-6.96,25.08-15.5,45.27-38.38,58.26-64.78,.68-1.23,1-2.54,.96-3.93-.18-6.78,1.96-13.35,2.03-20.11,.21-5.99,5.87-9.34,8.89-13.89,0-.01,.01-.02,.02-.04,1.88-4.87,2.9-10.03,3.15-15.25,0-.07-.05-.14-.12-.16-3.92-1.11-9.62-.98-11.13-5.59-2.55-7.15-5.41-14.18-9.08-20.85-.06-.11,.03-.24,.15-.23,1.69,.2,3.41,.4,5.12,.63,.12,0,.21-.11,.16-.22-2.72-5.86-1.21-13.9-6.98-17.98-4.08-2.47-6.08-6.99-9.06-10.54-.04-.05-.11-.07-.18-.06-4.92,1.4-6.89,6.45-7.96,10.99v.05c.27,5.73,2.75,12.04-1.9,16.73-.07,.06-.18,.06-.24,0-5.25-5.31-9.12-11.78-14.18-17.23-.01,0-.01-.01-.02-.02-6.11-5.01-12.63-9.73-19.9-12.89-.01-.01-.02-.01-.03-.01-4.98-1.41-10.21-1.74-15.28-2.76-1.65-.33-3.28-.74-4.88-1.28,0,0-.02-.01-.03-.01-2.81-1.45-5.28-3.45-7.95-5.1-.11-.07-.28,.05-.25,.18,.99,4.34,4.94,6.65,8.18,9.32,.05,.04,.12,.04,.18,.01,1.48-.93,3-1.84,4.52-2.75,.04-.03,.11-.03,.15,0,2.55,1.46,5.09,2.93,7.64,4.43,.07,.04,.09,.11,.07,.18-.91,2.98-1.26,6.57-4.19,8.34-7.18,6.67-16.37,10.19-25.41,13.49,.43,1.54,.26,.95,.7,2.49,4.06-.81,8-2.19,12.12-2.78,.09-.01,.18,.06,.18,.15,.03,3.01,.34,6.32-1.74,8.76-6.03,8.99-15.27,15.38-20.1,25.28-.02,.03-.02,.07,0,.11,1.59,5.97,2.27,12.15,3.32,18.23,0,.06-.02,.12-.06,.15-3.37,2.71-6.87,5.25-10.21,7.99-.04,.04-.06,.09-.05,.14,.27,2.58,.56,5.15,.82,7.73,.01,.06-.02,.12-.08,.14-5.58,3-4.28,10.53-9.31,14.08-3.26,3.5-7.47,4.97-11.89,5.88-5.64,1.16-11.34-1.71-13.99-6.82-3.87-7.44-7.41-15.03-11.32-22.45-.01-.01-.01-.02-.01-.03-2.31-6.56,4.57-12.26,1.34-18.59-1.42-5.5-5.23-9.85-8.62-14.23-.03-.05-.04-.1-.02-.15,.85-2.59,1.78-5.18,2.06-7.93,.01-.09-.06-.17-.15-.17-2.25-.15-4.47-.41-6.66-.8-.02,0-.04,0-.06-.02-2.26-1.29-4.21-4.46-7.15-3.43-5.46,1.54-10.89,3.7-16.64,3.61-.03,0-.05,0-.07,0-5.82-2.42-10.8-6.43-15.07-11.01-1.34-1.48-3.31-2.97-2.88-5.24,.15-5.43-.25-10.86,.13-16.27,0-.02,0-.03,0-.05,1.79-4.4,3.83-9.01,7.6-12.11,5.38-4.15,7.7-10.94,13.39-14.81,.09-.06,.09-.19,0-.26-2.08-1.49-5.2-2.22-6.07-4.83-.01-.03-.01-.05-.01-.08,.37-3.57,1.43-7.04,2.03-10.57,.01-.08,.08-.13,.15-.13,4.02-.02,8.05,.01,12.05-.58,.09,0,.15-.09,.15-.18-.26-3.44-2.62-5.83-4.89-8.18-.08-.08-.05-.21,.05-.25,1.8-.75,3.62-1.52,5.44-2.3-1.69,.13-4.99,.35-6.79,.48-.1,0-.16-.09-.13-.19,1.17-3.26,2.59-6.39,3.97-9.56-1.4,1.84-2.65,3.78-4.1,5.58-.02,.02-.04,.03-.06,.05-2.56,1.5-5.62,.69-8.35,.39-.09-.01-.15-.09-.13-.18,.65-2.54,.53-6.08,3.74-6.78,5.11-1.43,6.42-7.85,11.83-8.66,.08-.02,.17,.04,.19,.12,1.22,5.97,4.82,10.6,8.71,15.08,.07,.08,.18,.07,.24,0,2.5-3.1,5.95-4.89,9.79-5.8,.07-.02,.12-.08,.12-.15-.03-1.61-.06-3.21-.06-4.82,0-.07-.05-.12-.12-.14-4.19-1.05-4.49-5.29-5.36-8.84-.02-.06,.01-.13,.06-.16,3.33-2.23,6.96-3.92,10.64-5.51,5.97-2.54,9.45-8.8,15.61-11.01,9.98-3.41,21.24-5.1,31.27-.98,3.72,1.63,8.78,1.13,12.52,2.7,1.87,.78,1.38,3.59-.64,3.75-2.19,.17-4.38,.32-6.57,.51,.06,2.47,.03,1.49,.09,3.96,6.13,0,11.15-4.96,15.82-8.49,.02-.02,.04-.02,.06-.03,4.33-1.2,8.86-1.34,13.28-2.3,4.36-.46,7.62-3.69,11.54-5.36,.02,0,.04,0,.06,0,2.76-.26,5.54-.26,8.34-.42,.15,0,.21-.21,.08-.29-25.69-17.23-57-26.17-87.92-25.54-20.66,.08-40.97,4.97-59.94,13.01-5.61,2.38-11.1,5.03-16.45,7.92-.05,.02-.08,.07-.08,.12-.33,3.13-.66,6.26-.87,9.4,0,.05-.03,.1-.07,.12-3.76,2.44-7.12,5.3-9.41,9.17-.01,.03-.04,.05-.06,.06-5.85,2.51-11.09,7.66-17.84,6.88-.08-.01-.14-.07-.13-.15,.16-1.39,.47-3.99,.62-5.31-.79,3.3-1.47,6.64-3.17,9.6-.08,.14,.06,.29,.2,.22Zm272.73,107.09c2.07,57.56-31.44,113.87-81.14,142.18-26.9,15.66-58.36,23.31-89.44,21.58-65.53-2.24-126.83-48.6-146.9-110.99-5.97-16.41-8.03-33.84-9.53-51.1-.01,0-.01,0,0-.02,1.47-30.23,8.85-60.74,25.21-86.52,24.88-41.39,69.29-70.06,117.11-76.33,31.36-3.98,63.97,.73,92.35,14.89,44.49,21.15,78.57,63.28,88.94,111.55,3.32,11.29,3.39,23.09,3.4,34.76Zm-120.51-17.66c.11,.03,.23-.08,.21-.19-1.03-5.58-5.77-9.25-8.48-13.97-2.7-4.03-3.91-9.22-8.14-12.02,1.71,4.28,5.59,7.66,5.8,12.47,.62,5.82,4.66,12.23,10.61,13.71Zm-31.69-96.66c2.77-2.14-.9-5.47-2.84-2.55-3.28,2.07,.82,5.17,2.84,2.55Zm-3.81,11.59c.04-.05,.05-.11,.03-.16-.98-3.18-2.47-6.2-2.52-9.6,0-.12-.11-.19-.21-.14-2,.9-3.98,1.84-5.91,2.8-.09,.05-.12,.15-.07,.23,1.02,1.57,2.05,3.14,3.11,4.71,.05,.07,.03,.17-.05,.21-2.99,1.71-5.11,4.36-6.84,7.26-2.26,.23-3.2,.33-5.45,.56-2.05-2.08-4.19-4.03-6.25-6.07-.12-.12-.3,0-.24,.16,.95,2.46,1.53,5.03,2.09,7.62,.01,.08,.09,.13,.17,.12,5.24-.83,10.63-.42,15.87-1.32,.03,0,.06-.02,.09-.04,2.18-1.97,4.14-4.21,6.18-6.34Z"/>
  <path class="cls-1" d="M1413.4,220.57c-.17,7.18-2.69,14.05-5.04,20.77-1.94,.53-3.86,1.08-5.75,1.64-.78-.75-2.36-2.26-3.14-3,.37-4.24,.47-8.5,.55-12.76,2.75-3.98,6.13-7.51,9.35-11.13,2.85-.59,3.18,2.52,4.03,4.48Z"/>
  <path class="cls-1" d="M1322.79,44.79c-5.2,4.38-8.02,11.92-15.18,13.43-3.72,1.49-5.42,6.03-9.58,6.76-12.27,3.25-22.95,10.33-33.92,16.41-.41-2.67-1.71-6.16,.86-8.19,1.17-1.15,2.37-2.26,3.61-3.33,5.35-4.66,11.26-8.65,17.43-12.15-1-3.15-2.94-7.09,.28-9.68,2.31-1.37,4.73-2.72,7.24-3.8,4.02-1.72,8.27-2.78,12.7-2.17,5.45,.9,12.2-1.62,16.56,2.72Z"/>
  <path class="cls-1" d="M1166.96,203.21c.18,47.28,.03,94.55,.08,141.83-28.11-.02-56.23,.03-84.32-.03,0-7.86,.06-15.72-.07-23.57-48.98,29.34-113.05,31.13-163.63,4.62-27.51-13.94-50.97-35.67-67.34-61.78-19.96-31.79-29.08-70.38-24.99-107.73,1.81-22.64,9.49-44.29,19.37-64.58,21.88,21.68,43.64,43.5,65.36,65.33-3.85,21.18-.29,43.99,11.6,62.12,12.85,20.43,34.33,35.48,58.22,39.52,22.14,4.25,45.96-1.34,64.26-14.42-10.13-13.97-20.25-27.96-30.32-41.99,50.6-.43,101.19,.4,151.78,.68Z"/>
  <path class="cls-1" d="M1142.95,87.43c10.28,17.77,17.84,37.24,21.11,57.55-28.9,.2-57.79,.02-86.68,.08-8.41-19.44-22.31-37.08-41.38-46.92-25.08-13.88-57.22-13.61-82.07,.68-13.06,6.79-22.94,18-31.74,29.52-20.06-20.03-40.1-40.07-60.12-60.12C894.29,26.58,947.04,1.98,999.6,3.55c58.07,.33,114.08,34.02,143.35,83.88Z"/>
  <path class="cls-1" d="M799.03,99.59c.56,23.92-4.15,48.57-17.51,68.78-19.41,30.37-55.43,49.5-91.53,47.49,1.61,2.59,3.65,4.87,5.85,7,41.87,40.26,82.75,81.57,124.36,122.1-43.55,.2-87.1,0-130.62,.11-36.04-35.8-71.98-71.67-107.98-107.48-14.66-15.2-30.39-29.27-45.14-44.37-20.44-20.42-40.84-40.88-61.32-61.29-2.02-1.93-3.94-4.32-3.44-7.32,.03-40.35-.04-80.7,.03-121.04h226.2c26.06,.21,52.28,10.06,70.78,28.66,18.32,17.47,28.59,42.3,30.32,67.36Zm-90.26,19.08c4.11-8.09,6.02-18.15,1.97-26.65-49.43,.2-98.89-.4-148.32,.3,11.52,12.35,23.85,23.92,35.64,36.03,2.05,1.81,3.98,4.58,7.04,4.48,23.79,.12,47.58-.03,71.38,.07,11.98-.29,25.21-3.75,32.29-14.23Z"/>
  <path class="cls-1" d="M557.06,250.49c-.08,31.13,0,62.26-.05,93.39-28.16,.03-56.34,.03-84.5,0,0-59.33-.07-118.64,.03-177.96,28.18,28.18,56.41,56.32,84.52,84.57Z"/>
  <path class="cls-1" d="M422.02,344.97c-32.77,.15-65.56,.04-98.35,.07-12.96-20.44-25.4-41.19-37.91-61.88-41.14-67.88-82.17-135.84-123.38-203.67C178.51,53.08,194.46,26.54,210.75,.25h1.46c69.9,114.94,139.87,229.82,209.81,344.72Z"/>
  <path class="cls-1" d="M146.42,106.32c16.31,26.94,32.77,53.81,48.87,80.9-32.29,52.46-64.34,105.09-96.31,157.75-32.91,.12-65.83,.09-98.73,.02,29.41-47.87,58.58-95.89,87.92-143.82,19.49-31.56,38.36-63.53,58.25-94.85Z"/>
</svg>