<?xml version="1.0" encoding="UTF-8"?>
<svg id="Layer_1" data-name="Layer 1" xmlns="http://www.w3.org/2000/svg" viewBox="0 0 371.55 122.8">
  <g>
    <g>
      <path d="M182.71,70.69l-2.59,2.46c-1.87-1.84-3.91-3.23-6.14-4.18s-4.39-1.42-6.5-1.42c-2.63,0-5.13,.65-7.5,1.93-2.38,1.29-4.22,3.04-5.52,5.25-1.31,2.21-1.96,4.54-1.96,7s.68,4.91,2.03,7.18c1.35,2.27,3.22,4.05,5.6,5.35,2.38,1.3,4.99,1.95,7.83,1.95,3.45,0,6.36-.97,8.74-2.91,2.38-1.94,3.79-4.46,4.23-7.56h-10.68v-3.23h14.43c-.03,5.17-1.57,9.28-4.61,12.33-3.04,3.04-7.11,4.56-12.21,4.56-6.19,0-11.09-2.11-14.71-6.33-2.78-3.25-4.17-7-4.17-11.27,0-3.17,.8-6.12,2.39-8.85,1.59-2.73,3.78-4.87,6.56-6.41,2.78-1.54,5.92-2.31,9.42-2.31,2.84,0,5.51,.51,8.01,1.54s4.95,2.67,7.33,4.93Z" fill="#fff"/>
      <path d="M192.18,65.07h6.67c3.72,0,6.24,.15,7.56,.46,1.99,.46,3.6,1.43,4.85,2.93,1.24,1.5,1.87,3.34,1.87,5.53,0,1.82-.43,3.43-1.29,4.81s-2.08,2.43-3.68,3.13c-1.59,.71-3.79,1.07-6.6,1.08l12.04,15.55h-4.14l-12.04-15.55h-1.89v15.55h-3.35v-33.48Zm3.35,3.28v11.38l5.77,.05c2.24,0,3.89-.21,4.96-.64,1.07-.42,1.91-1.1,2.51-2.04,.6-.93,.9-1.98,.9-3.13s-.3-2.14-.91-3.06c-.61-.92-1.41-1.57-2.39-1.97-.99-.39-2.63-.59-4.92-.59h-5.9Z" fill="#fff"/>
      <path d="M237.17,64.23c5.07,0,9.32,1.69,12.73,5.08,3.42,3.38,5.13,7.55,5.13,12.5s-1.7,9.06-5.11,12.47c-3.41,3.41-7.57,5.12-12.47,5.12s-9.16-1.7-12.57-5.1c-3.42-3.4-5.12-7.51-5.12-12.34,0-3.22,.78-6.2,2.34-8.95,1.56-2.75,3.68-4.9,6.37-6.45,2.69-1.56,5.6-2.33,8.72-2.33Zm.15,3.25c-2.48,0-4.83,.65-7.05,1.94-2.22,1.29-3.95,3.03-5.2,5.22-1.25,2.19-1.87,4.62-1.87,7.31,0,3.98,1.38,7.34,4.14,10.08,2.76,2.74,6.08,4.11,9.98,4.11,2.6,0,5-.63,7.22-1.89,2.21-1.26,3.94-2.98,5.17-5.17,1.24-2.19,1.86-4.62,1.86-7.29s-.62-5.06-1.86-7.21c-1.24-2.15-2.98-3.87-5.23-5.16-2.25-1.29-4.64-1.94-7.16-1.94Z" fill="#fff"/>
      <path d="M262.79,65.07h3.35v20.21c0,2.4,.04,3.89,.14,4.48,.17,1.32,.55,2.42,1.16,3.31s1.54,1.63,2.8,2.23c1.26,.6,2.53,.9,3.8,.9,1.11,0,2.17-.24,3.19-.71s1.87-1.12,2.55-1.96c.68-.83,1.18-1.84,1.5-3.03,.23-.85,.34-2.59,.34-5.24v-20.21h3.35v20.21c0,2.99-.29,5.41-.88,7.25s-1.75,3.45-3.51,4.81c-1.75,1.37-3.87,2.05-6.36,2.05-2.7,0-5.02-.65-6.94-1.93-1.93-1.29-3.22-3-3.87-5.12-.41-1.31-.62-3.66-.62-7.06v-20.21Z" fill="#fff"/>
      <path d="M294.11,65.07h6.67c3.83,0,6.4,.17,7.74,.5,1.91,.47,3.47,1.44,4.69,2.9,1.21,1.47,1.82,3.3,1.82,5.52s-.59,4.07-1.78,5.52c-1.18,1.45-2.81,2.42-4.89,2.92-1.52,.36-4.36,.55-8.51,.55h-2.39v15.57h-3.35v-33.48Zm3.35,3.28v11.36l5.67,.07c2.29,0,3.97-.21,5.03-.63,1.06-.42,1.9-1.09,2.5-2.02,.61-.93,.91-1.97,.91-3.12s-.3-2.15-.91-3.08c-.61-.93-1.41-1.59-2.4-1.99-.99-.39-2.62-.59-4.88-.59h-5.92Z" fill="#fff"/>
    </g>
    <g>
      <path d="M180.94,30.13l-4.46,4.25c-3.03-3.21-6.44-4.81-10.23-4.81-3.2,0-5.89,1.09-8.08,3.28-2.19,2.19-3.29,4.88-3.29,8.09,0,2.23,.48,4.22,1.46,5.95,.97,1.73,2.34,3.09,4.12,4.08,1.77,.99,3.74,1.48,5.91,1.48,1.85,0,3.54-.35,5.07-1.04,1.53-.69,3.22-1.95,5.05-3.77l4.32,4.51c-2.47,2.41-4.81,4.09-7.01,5.02-2.2,.93-4.71,1.4-7.54,1.4-5.2,0-9.46-1.65-12.78-4.95s-4.97-7.53-4.97-12.69c0-3.34,.75-6.3,2.26-8.9,1.51-2.6,3.67-4.68,6.49-6.26,2.81-1.58,5.85-2.37,9.09-2.37,2.76,0,5.42,.58,7.98,1.75,2.56,1.17,4.76,2.83,6.61,4.98Z" fill="#fff"/>
      <path d="M197.66,24.24h6.46l12.88,33.48h-6.62l-2.62-6.9h-13.66l-2.72,6.9h-6.62l12.91-33.48Zm3.27,8.88l-4.49,11.5h8.96l-4.47-11.5Z" fill="#fff"/>
      <path d="M222.86,24.24h6.37v27.41h9.29v6.08h-15.66V24.24Z" fill="#fff"/>
      <path d="M244.31,24.24h6.37v27.41h9.29v6.08h-15.66V24.24Z" fill="#fff"/>
      <path d="M265.29,24.24h6.33V57.73h-6.33V24.24Z" fill="#fff"/>
      <path d="M279.75,24.24h7.55c4.87,0,8.48,.6,10.85,1.81,2.37,1.21,4.31,3.17,5.85,5.88,1.53,2.72,2.3,5.89,2.3,9.52,0,2.58-.43,4.95-1.29,7.11s-2.04,3.96-3.55,5.38c-1.51,1.43-3.14,2.41-4.9,2.96-1.76,.55-4.81,.82-9.14,.82h-7.66V24.24Zm6.33,6.15v21.12h2.96c2.91,0,5.03-.33,6.34-1,1.31-.67,2.39-1.79,3.22-3.37,.83-1.58,1.25-3.52,1.25-5.83,0-3.55-.99-6.31-2.98-8.27-1.79-1.76-4.67-2.64-8.63-2.64h-2.16Z" fill="#fff"/>
      <path d="M329.11,23.4c4.74,0,8.81,1.71,12.22,5.14,3.41,3.43,5.11,7.61,5.11,12.54s-1.68,9.02-5.05,12.41c-3.36,3.39-7.44,5.08-12.24,5.08s-9.2-1.74-12.53-5.21c-3.33-3.48-4.99-7.6-4.99-12.38,0-3.2,.77-6.15,2.32-8.83,1.55-2.69,3.68-4.81,6.39-6.39,2.71-1.57,5.63-2.36,8.76-2.36Zm-.07,6.24c-3.1,0-5.7,1.08-7.82,3.23-2.11,2.15-3.17,4.89-3.17,8.22,0,3.7,1.33,6.63,3.99,8.79,2.07,1.68,4.44,2.53,7.11,2.53,3.02,0,5.6-1.09,7.73-3.28,2.13-2.19,3.19-4.88,3.19-8.08s-1.07-5.88-3.21-8.09c-2.14-2.21-4.75-3.31-7.82-3.31Z" fill="#fff"/>
      <path d="M370.96,28.8l-4.72,4.17c-1.66-2.31-3.34-3.46-5.06-3.46-.84,0-1.52,.22-2.05,.67s-.8,.95-.8,1.51,.19,1.09,.57,1.59c.52,.67,2.07,2.1,4.67,4.3,2.43,2.03,3.91,3.31,4.42,3.85,1.29,1.3,2.21,2.55,2.75,3.74,.54,1.19,.81,2.49,.81,3.9,0,2.75-.95,5.02-2.85,6.81-1.9,1.79-4.38,2.69-7.43,2.69-2.39,0-4.46-.58-6.23-1.75s-3.29-3-4.55-5.51l5.36-3.23c1.61,2.96,3.47,4.44,5.56,4.44,1.09,0,2.01-.32,2.76-.96,.74-.64,1.12-1.37,1.12-2.21,0-.76-.28-1.52-.84-2.28-.56-.76-1.8-1.92-3.72-3.48-3.65-2.97-6-5.27-7.07-6.89-1.06-1.62-1.6-3.23-1.6-4.84,0-2.32,.88-4.31,2.65-5.97,1.77-1.66,3.95-2.49,6.55-2.49,1.67,0,3.26,.39,4.78,1.16,1.51,.77,3.15,2.19,4.91,4.23Z" fill="#fff"/>
    </g>
  </g>
  <g>
    <rect x="95.22" y="68.01" width="13.69" height="13.69" fill="#fff"/>
    <rect x="81.47" y="54.32" width="13.69" height="13.69" fill="#fff"/>
    <rect x="108.91" y="81.7" width="13.69" height="13.69" fill="#fff"/>
    <rect x="108.97" y="40" width="13.69" height="13.69" fill="#fff"/>
    <rect x="122.66" y="53.69" width="13.69" height="13.69" fill="#fff"/>
    <path d="M27.5,61.41c0,18.69,15.22,33.89,33.9,33.89h47.5v13.63h13.75v13.87H61.41C27.55,122.8,0,95.26,0,61.41S27.55,0,61.41,0h61.25V27.5H61.41c-18.69,0-33.9,15.2-33.9,33.9Z" fill="#fff"/>
    <rect x="95.22" y="81.7" width="13.69" height="13.69" fill="#fff"/>
  </g>
</svg>