<?xml version="1.0" encoding="UTF-8"?>
<svg id="Layer_1" data-name="Layer 1" xmlns="http://www.w3.org/2000/svg" viewBox="0 0 372.05 123.3">
  <defs>
    <style>
      .cls-1 {
        fill: #fff;
      }
    </style>
  </defs>
  <rect class="cls-1" x="95.47" y="95.55" width="13.68" height=".09"/>
  <rect class="cls-1" x="109.16" y="81.95" width="13.69" height="13.69"/>
  <path class="cls-1" d="M109.15,95.64v13.54h13.75v13.87H61.66C27.8,123.05,.25,95.51,.25,61.66S27.8,.25,61.66,.25h61.24V27.76H61.66c-18.69,0-33.91,15.2-33.91,33.9s15.22,33.89,33.91,33.89h33.81v.09h13.68Z"/>
  <polygon class="cls-1" points="95.47 95.55 95.47 81.95 109.16 81.95 109.16 95.64 109.15 95.64 109.15 95.55 95.47 95.55"/>
  <path class="cls-1" d="M371.8,49.33c0,2.75-.95,5.02-2.85,6.81s-4.37,2.69-7.43,2.69c-2.38,0-4.46-.59-6.23-1.76s-3.28-3-4.55-5.51l5.36-3.23c1.61,2.96,3.47,4.44,5.56,4.44,1.1,0,2.02-.32,2.76-.96,.75-.63,1.12-1.37,1.12-2.2,0-.76-.28-1.52-.84-2.28-.57-.76-1.81-1.92-3.72-3.48-3.65-2.98-6.01-5.27-7.07-6.89-1.06-1.61-1.6-3.23-1.6-4.84,0-2.32,.89-4.31,2.66-5.97s3.95-2.49,6.55-2.49c1.67,0,3.27,.38,4.78,1.16,1.51,.77,3.15,2.18,4.91,4.23l-4.72,4.17c-1.66-2.31-3.35-3.46-5.06-3.46-.84,0-1.53,.22-2.06,.67s-.8,.95-.8,1.51,.19,1.09,.58,1.6c.51,.66,2.07,2.1,4.67,4.3,2.43,2.03,3.91,3.31,4.42,3.84,1.29,1.31,2.21,2.56,2.75,3.75s.81,2.49,.81,3.9Z"/>
  <path class="cls-1" d="M346.69,41.34c0,4.89-1.68,9.02-5.04,12.41-3.37,3.38-7.45,5.08-12.25,5.08s-9.2-1.74-12.52-5.22c-3.33-3.47-4.99-7.6-4.99-12.38,0-3.2,.77-6.15,2.32-8.83,1.55-2.69,3.68-4.82,6.39-6.39s5.63-2.35,8.76-2.35c4.74,0,8.81,1.71,12.22,5.14s5.11,7.61,5.11,12.54Zm-6.37-.04c0-3.19-1.07-5.89-3.21-8.1-2.15-2.2-4.75-3.31-7.82-3.31s-5.7,1.08-7.82,3.23c-2.11,2.16-3.16,4.9-3.16,8.22,0,3.71,1.33,6.63,3.99,8.79,2.06,1.68,4.43,2.53,7.1,2.53,3.03,0,5.6-1.1,7.73-3.28,2.13-2.19,3.19-4.88,3.19-8.08Z"/>
  <path class="cls-1" d="M315.28,74.25c0,2.23-.59,4.07-1.77,5.52-1.19,1.45-2.82,2.42-4.9,2.92-1.51,.37-4.35,.55-8.51,.55h-2.39v15.57h-3.35v-33.49h6.67c3.83,0,6.41,.17,7.74,.5,1.91,.47,3.48,1.44,4.69,2.91,1.22,1.46,1.82,3.3,1.82,5.52Zm-3.46,.01c0-1.12-.3-2.15-.91-3.08-.6-.93-1.41-1.59-2.4-1.99-.99-.39-2.62-.59-4.88-.59h-5.92v11.36l5.67,.07c2.29,0,3.97-.21,5.03-.63,1.06-.41,1.9-1.09,2.5-2.02,.61-.93,.91-1.97,.91-3.12Z"/>
  <path class="cls-1" d="M306.54,41.71c0,2.58-.43,4.95-1.28,7.11-.86,2.16-2.04,3.96-3.55,5.38-1.51,1.43-3.14,2.42-4.9,2.96-1.76,.55-4.81,.82-9.15,.82h-7.66V24.5h7.55c4.87,0,8.48,.6,10.85,1.81,2.36,1.2,4.31,3.17,5.84,5.88,1.53,2.72,2.3,5.89,2.3,9.52Zm-6.44-.15c0-3.55-.99-6.31-2.98-8.27-1.79-1.76-4.67-2.65-8.63-2.65h-2.16v21.13h2.96c2.91,0,5.02-.34,6.34-1,1.31-.67,2.38-1.8,3.22-3.38,.83-1.58,1.25-3.52,1.25-5.83Z"/>
  <path class="cls-1" d="M285.21,65.32v20.22c0,2.99-.29,5.4-.87,7.25-.59,1.84-1.76,3.45-3.51,4.81-1.75,1.37-3.87,2.05-6.36,2.05-2.7,0-5.02-.65-6.94-1.93-1.93-1.3-3.22-3-3.87-5.13-.41-1.3-.62-3.65-.62-7.05v-20.22h3.35v20.22c0,2.39,.04,3.89,.13,4.48,.17,1.32,.56,2.43,1.17,3.31,.6,.89,1.54,1.63,2.8,2.23,1.25,.6,2.52,.9,3.8,.9,1.1,0,2.17-.23,3.18-.7,1.02-.47,1.87-1.13,2.55-1.96,.69-.83,1.19-1.84,1.51-3.03,.22-.85,.34-2.59,.34-5.23v-20.22h3.34Z"/>
  <rect class="cls-1" x="265.54" y="24.5" width="6.33" height="33.48"/>
  <polygon class="cls-1" points="260.22 51.91 260.22 57.98 244.56 57.98 244.56 24.5 250.93 24.5 250.93 51.91 260.22 51.91"/>
  <path class="cls-1" d="M250.16,69.56c3.41,3.38,5.12,7.55,5.12,12.49s-1.7,9.06-5.11,12.48c-3.41,3.41-7.57,5.12-12.47,5.12s-9.16-1.7-12.58-5.1c-3.41-3.4-5.12-7.51-5.12-12.34,0-3.21,.78-6.2,2.33-8.94,1.56-2.75,3.68-4.9,6.37-6.46,2.69-1.55,5.6-2.33,8.72-2.33,5.08,0,9.32,1.69,12.74,5.08Zm1.66,12.48c0-2.65-.62-5.06-1.86-7.21-1.23-2.15-2.98-3.87-5.23-5.16s-4.63-1.93-7.16-1.93-4.82,.64-7.04,1.93-3.95,3.03-5.2,5.22-1.87,4.62-1.87,7.31c0,3.98,1.38,7.34,4.14,10.08s6.08,4.11,9.97,4.11c2.6,0,5.01-.63,7.22-1.89s3.94-2.98,5.17-5.17c1.24-2.18,1.86-4.61,1.86-7.29Z"/>
  <polygon class="cls-1" points="238.78 51.91 238.78 57.98 223.12 57.98 223.12 24.5 229.49 24.5 229.49 51.91 238.78 51.91"/>
  <path class="cls-1" d="M204.38,24.5l12.88,33.48h-6.63l-2.62-6.89h-13.66l-2.72,6.89h-6.63l12.91-33.48h6.47Zm1.27,20.37l-4.46-11.49-4.5,11.49h8.96Z"/>
  <path class="cls-1" d="M201.81,83.26l12.04,15.55h-4.14l-12.04-15.55h-1.89v15.55h-3.35v-33.49h6.67c3.72,0,6.24,.16,7.56,.46,1.99,.45,3.6,1.43,4.85,2.93,1.24,1.49,1.87,3.34,1.87,5.53,0,1.82-.43,3.42-1.29,4.8-.86,1.39-2.08,2.43-3.68,3.14-1.59,.7-3.79,1.06-6.6,1.08Zm7.21-5.91c.6-.93,.9-1.97,.9-3.13s-.31-2.14-.92-3.06c-.6-.92-1.4-1.57-2.39-1.97-.99-.39-2.63-.59-4.93-.59h-5.9v11.38l5.77,.05c2.23,0,3.89-.21,4.96-.64,1.07-.42,1.91-1.1,2.51-2.04Z"/>
  <path class="cls-1" d="M170.51,82.76h14.44c-.03,5.17-1.57,9.28-4.61,12.33-3.05,3.04-7.12,4.56-12.22,4.56-6.19,0-11.09-2.11-14.7-6.33-2.78-3.25-4.17-7-4.17-11.27,0-3.17,.8-6.12,2.39-8.85,1.6-2.73,3.78-4.87,6.56-6.41s5.92-2.31,9.42-2.31c2.84,0,5.51,.51,8.02,1.54,2.5,1.02,4.94,2.67,7.32,4.93l-2.59,2.45c-1.87-1.83-3.91-3.22-6.13-4.17-2.23-.95-4.39-1.43-6.5-1.43-2.63,0-5.13,.65-7.5,1.94-2.38,1.29-4.22,3.04-5.52,5.25-1.31,2.2-1.96,4.54-1.96,7s.67,4.91,2.03,7.18c1.35,2.27,3.21,4.05,5.59,5.35,2.39,1.29,5,1.94,7.83,1.94,3.45,0,6.36-.97,8.75-2.91,2.38-1.94,3.79-4.46,4.23-7.56h-10.68v-3.23Z"/>
  <path class="cls-1" d="M181.19,30.38l-4.46,4.25c-3.03-3.2-6.44-4.81-10.23-4.81-3.2,0-5.9,1.1-8.09,3.29-2.19,2.18-3.28,4.88-3.28,8.08,0,2.24,.48,4.22,1.45,5.95s2.34,3.09,4.12,4.08c1.77,.99,3.74,1.48,5.91,1.48,1.85,0,3.54-.34,5.07-1.04,1.53-.69,3.22-1.94,5.05-3.77l4.32,4.51c-2.47,2.42-4.81,4.09-7.01,5.02-2.2,.94-4.71,1.41-7.53,1.41-5.21,0-9.47-1.66-12.78-4.96-3.32-3.3-4.98-7.53-4.98-12.69,0-3.33,.76-6.3,2.27-8.9,1.51-2.59,3.67-4.68,6.48-6.26,2.82-1.57,5.85-2.36,9.1-2.36,2.76,0,5.42,.58,7.98,1.75,2.55,1.16,4.76,2.82,6.61,4.97Z"/>
  <rect class="cls-1" x="122.91" y="53.95" width="13.68" height="13.68"/>
  <rect class="cls-1" x="109.22" y="40.26" width="13.69" height="13.69"/>
  <rect class="cls-1" x="95.47" y="68.27" width="13.69" height="13.68"/>
  <rect class="cls-1" x="81.72" y="54.58" width="13.69" height="13.69"/>
</svg>