<?xml version="1.0" encoding="UTF-8"?>
<svg xmlns="http://www.w3.org/2000/svg" xmlns:xlink="http://www.w3.org/1999/xlink" width="124px" height="124px" viewBox="0 0 124 124" version="1.1">
<defs>
<linearGradient id="linear0" gradientUnits="userSpaceOnUse" x1="392.7695" y1="354.377" x2="406.4551" y2="354.377" gradientTransform="matrix(0.124,0,0,0.124,2.068283,19.725932)">
<stop offset="1" style="stop-color:rgb(100%,100%,100%);stop-opacity:1;"/>
<stop offset="1" style="stop-color:rgb(0%,0%,0%);stop-opacity:1;"/>
</linearGradient>
<clipPath id="clip1">
  <path d="M 50.773438 62.820312 L 52.46875 62.820312 L 52.46875 64.515625 L 50.773438 64.515625 Z M 50.773438 62.820312 "/>
</clipPath>
<linearGradient id="linear1" gradientUnits="userSpaceOnUse" x1="390.5" y1="996.5635" x2="391.5" y2="996.5635" gradientTransform="matrix(-10.18934,10.18934,10.18934,10.18934,-6119.813168,-14073.552434)">
<stop offset="1" style="stop-color:rgb(100%,100%,100%);stop-opacity:1;"/>
<stop offset="1" style="stop-color:rgb(0%,0%,0%);stop-opacity:1;"/>
</linearGradient>
<linearGradient id="linear2" gradientUnits="userSpaceOnUse" x1="406.3203" y1="368.064" x2="420.1426" y2="368.064" gradientTransform="matrix(0.124,0,0,0.124,2.068283,19.725932)">
<stop offset="1" style="stop-color:rgb(100%,100%,100%);stop-opacity:1;"/>
<stop offset="1" style="stop-color:rgb(0%,0%,0%);stop-opacity:1;"/>
</linearGradient>
<clipPath id="clip2">
  <path d="M 52.453125 64.515625 L 54.164062 64.515625 L 54.164062 66.214844 L 52.453125 66.214844 Z M 52.453125 64.515625 "/>
</clipPath>
<linearGradient id="linear3" gradientUnits="userSpaceOnUse" x1="390.4941" y1="996.5635" x2="391.5118" y2="996.5635" gradientTransform="matrix(-10.18934,10.18934,10.18934,10.18934,-6118.123668,-14071.862934)">
<stop offset="1" style="stop-color:rgb(100%,100%,100%);stop-opacity:1;"/>
<stop offset="1" style="stop-color:rgb(0%,0%,0%);stop-opacity:1;"/>
</linearGradient>
<linearGradient id="linear4" gradientUnits="userSpaceOnUse" x1="406.5146" y1="326.3691" x2="420.2012" y2="326.3691" gradientTransform="matrix(0.124,0,0,0.124,2.068283,19.725932)">
<stop offset="1" style="stop-color:rgb(100%,100%,100%);stop-opacity:1;"/>
<stop offset="1" style="stop-color:rgb(0%,0%,0%);stop-opacity:1;"/>
</linearGradient>
<clipPath id="clip3">
  <path d="M 52.476562 59.347656 L 54.171875 59.347656 L 54.171875 61.042969 L 52.476562 61.042969 Z M 52.476562 59.347656 "/>
</clipPath>
<linearGradient id="linear5" gradientUnits="userSpaceOnUse" x1="390.501" y1="996.5635" x2="391.4951" y2="996.5635" gradientTransform="matrix(-10.18934,10.18934,10.18934,10.18934,-6120.696668,-14074.435934)">
<stop offset="1" style="stop-color:rgb(100%,100%,100%);stop-opacity:1;"/>
<stop offset="1" style="stop-color:rgb(0%,0%,0%);stop-opacity:1;"/>
</linearGradient>
<linearGradient id="linear6" gradientUnits="userSpaceOnUse" x1="428.4824" y1="476.9043" x2="442.1699" y2="476.9043" gradientTransform="matrix(0.124,0,0,-0.124,1.034135,121.02896)">
<stop offset="1" style="stop-color:rgb(100%,100%,100%);stop-opacity:1;"/>
<stop offset="1" style="stop-color:rgb(0%,0%,0%);stop-opacity:1;"/>
</linearGradient>
<linearGradient id="linear7" gradientUnits="userSpaceOnUse" x1="297.5459" y1="340.9199" x2="420.1992" y2="340.9199" gradientTransform="matrix(0.124,0,0,0.124,2.068283,19.725932)">
<stop offset="1" style="stop-color:rgb(100%,100%,100%);stop-opacity:1;"/>
<stop offset="1" style="stop-color:rgb(0%,0%,0%);stop-opacity:1;"/>
</linearGradient>
<clipPath id="clip4">
  <path d="M 38 54 L 55 54 L 55 70 L 38 70 Z M 38 54 "/>
</clipPath>
<clipPath id="clip5">
  <path d="M 46.578125 54.386719 C 42.378906 54.386719 38.964844 57.800781 38.964844 62 C 38.964844 66.199219 42.378906 69.613281 46.578125 69.613281 L 54.171875 69.613281 L 54.171875 67.894531 L 52.46875 67.894531 L 52.46875 66.203125 L 46.578125 66.203125 C 44.261719 66.203125 42.375 64.316406 42.375 62 C 42.375 59.683594 44.261719 57.796875 46.578125 57.796875 L 54.171875 57.796875 L 54.171875 54.386719 Z M 46.578125 54.386719 "/>
</clipPath>
<linearGradient id="linear8" gradientUnits="userSpaceOnUse" x1="236.1484" y1="340.9199" x2="481.5977" y2="340.9199" gradientTransform="matrix(0.124,0,0,0.124,2.068283,19.725932)">
<stop offset="1" style="stop-color:rgb(100%,100%,100%);stop-opacity:1;"/>
<stop offset="1" style="stop-color:rgb(0%,0%,0%);stop-opacity:1;"/>
</linearGradient>
<clipPath id="clip6">
  <path d="M 50.773438 64.476562 L 52.46875 64.476562 L 52.46875 66.324219 L 50.773438 66.324219 Z M 50.773438 64.476562 "/>
</clipPath>
</defs>
<g id="surface1">
<path style=" stroke:none;fill-rule:nonzero;fill:rgb(100%,100%,100%);fill-opacity:1;" d="M 61.621094 63.152344 L 61.296875 63.457031 C 61.066406 63.230469 60.8125 63.058594 60.539062 62.9375 C 60.261719 62.820312 59.992188 62.761719 59.730469 62.761719 C 59.40625 62.761719 59.097656 62.84375 58.800781 63.003906 C 58.507812 63.164062 58.277344 63.378906 58.117188 63.652344 C 57.957031 63.925781 57.875 64.214844 57.875 64.519531 C 57.875 64.832031 57.957031 65.128906 58.125 65.410156 C 58.292969 65.691406 58.523438 65.914062 58.820312 66.074219 C 59.117188 66.234375 59.4375 66.316406 59.789062 66.316406 C 60.21875 66.316406 60.578125 66.195312 60.875 65.957031 C 61.171875 65.714844 61.34375 65.402344 61.398438 65.019531 L 60.074219 65.019531 L 60.074219 64.617188 L 61.867188 64.617188 C 61.863281 65.257812 61.671875 65.769531 61.292969 66.144531 C 60.917969 66.523438 60.410156 66.710938 59.78125 66.710938 C 59.011719 66.710938 58.402344 66.449219 57.957031 65.925781 C 57.613281 65.523438 57.441406 65.058594 57.441406 64.53125 C 57.441406 64.136719 57.539062 63.769531 57.738281 63.433594 C 57.933594 63.09375 58.203125 62.828125 58.550781 62.636719 C 58.894531 62.445312 59.28125 62.351562 59.71875 62.351562 C 60.070312 62.351562 60.402344 62.414062 60.710938 62.542969 C 61.023438 62.667969 61.324219 62.871094 61.621094 63.152344 "/>
<path style=" stroke:none;fill-rule:nonzero;fill:rgb(100%,100%,100%);fill-opacity:1;" d="M 62.792969 62.457031 L 63.621094 62.457031 C 64.082031 62.457031 64.394531 62.472656 64.558594 62.511719 C 64.804688 62.566406 65.003906 62.6875 65.160156 62.875 C 65.3125 63.058594 65.390625 63.289062 65.390625 63.558594 C 65.390625 63.785156 65.339844 63.984375 65.230469 64.15625 C 65.125 64.328125 64.972656 64.457031 64.777344 64.546875 C 64.578125 64.632812 64.304688 64.675781 63.957031 64.679688 L 65.449219 66.609375 L 64.9375 66.609375 L 63.445312 64.679688 L 63.210938 64.679688 L 63.210938 66.609375 L 62.792969 66.609375 Z M 63.210938 62.863281 L 63.210938 64.273438 L 63.925781 64.277344 C 64.203125 64.277344 64.40625 64.253906 64.539062 64.199219 C 64.671875 64.144531 64.777344 64.0625 64.851562 63.945312 C 64.925781 63.832031 64.960938 63.703125 64.960938 63.558594 C 64.960938 63.417969 64.925781 63.292969 64.847656 63.179688 C 64.773438 63.066406 64.675781 62.984375 64.550781 62.933594 C 64.429688 62.886719 64.226562 62.859375 63.941406 62.859375 Z M 63.210938 62.863281 "/>
<path style=" stroke:none;fill-rule:nonzero;fill:rgb(100%,100%,100%);fill-opacity:1;" d="M 68.375 62.351562 C 69.003906 62.351562 69.527344 62.558594 69.953125 62.980469 C 70.375 63.398438 70.585938 63.917969 70.585938 64.53125 C 70.585938 65.136719 70.375 65.652344 69.953125 66.078125 C 69.53125 66.5 69.015625 66.710938 68.40625 66.710938 C 67.792969 66.710938 67.273438 66.5 66.847656 66.078125 C 66.425781 65.65625 66.210938 65.148438 66.210938 64.550781 C 66.210938 64.148438 66.308594 63.78125 66.5 63.441406 C 66.695312 63.101562 66.957031 62.832031 67.292969 62.640625 C 67.625 62.445312 67.984375 62.351562 68.375 62.351562 M 68.390625 62.753906 C 68.085938 62.753906 67.792969 62.835938 67.519531 62.996094 C 67.242188 63.15625 67.027344 63.371094 66.875 63.640625 C 66.71875 63.914062 66.640625 64.214844 66.640625 64.546875 C 66.640625 65.042969 66.8125 65.457031 67.15625 65.796875 C 67.496094 66.136719 67.910156 66.308594 68.390625 66.308594 C 68.714844 66.308594 69.011719 66.230469 69.285156 66.074219 C 69.5625 65.917969 69.777344 65.703125 69.929688 65.433594 C 70.082031 65.160156 70.160156 64.859375 70.160156 64.527344 C 70.160156 64.199219 70.082031 63.902344 69.929688 63.632812 C 69.777344 63.367188 69.558594 63.15625 69.28125 62.996094 C 69 62.835938 68.703125 62.753906 68.390625 62.753906 "/>
<path style=" stroke:none;fill-rule:nonzero;fill:rgb(100%,100%,100%);fill-opacity:1;" d="M 71.550781 62.457031 L 71.964844 62.457031 L 71.964844 64.960938 C 71.964844 65.257812 71.972656 65.445312 71.980469 65.515625 C 72.003906 65.679688 72.050781 65.816406 72.125 65.929688 C 72.203125 66.039062 72.316406 66.132812 72.472656 66.203125 C 72.628906 66.28125 72.785156 66.316406 72.945312 66.316406 C 73.082031 66.316406 73.214844 66.289062 73.339844 66.230469 C 73.464844 66.171875 73.570312 66.089844 73.65625 65.984375 C 73.742188 65.882812 73.804688 65.757812 73.84375 65.609375 C 73.871094 65.503906 73.886719 65.289062 73.886719 64.960938 L 73.886719 62.457031 L 74.300781 62.457031 L 74.300781 64.960938 C 74.300781 65.332031 74.265625 65.632812 74.191406 65.859375 C 74.117188 66.089844 73.972656 66.289062 73.757812 66.457031 C 73.539062 66.628906 73.277344 66.710938 72.96875 66.710938 C 72.632812 66.710938 72.34375 66.632812 72.105469 66.472656 C 71.867188 66.3125 71.707031 66.101562 71.628906 65.835938 C 71.578125 65.675781 71.550781 65.382812 71.550781 64.960938 Z M 71.550781 62.457031 "/>
<path style=" stroke:none;fill-rule:nonzero;fill:rgb(100%,100%,100%);fill-opacity:1;" d="M 75.433594 62.457031 L 76.261719 62.457031 C 76.734375 62.457031 77.054688 62.476562 77.21875 62.515625 C 77.457031 62.574219 77.652344 62.695312 77.800781 62.875 C 77.953125 63.058594 78.027344 63.285156 78.027344 63.5625 C 78.027344 63.839844 77.953125 64.066406 77.808594 64.246094 C 77.660156 64.425781 77.457031 64.546875 77.199219 64.609375 C 77.011719 64.652344 76.660156 64.675781 76.144531 64.675781 L 75.847656 64.675781 L 75.847656 66.605469 L 75.433594 66.605469 Z M 75.847656 62.863281 L 75.847656 64.269531 L 76.550781 64.277344 C 76.835938 64.277344 77.042969 64.253906 77.175781 64.199219 C 77.308594 64.148438 77.410156 64.066406 77.484375 63.949219 C 77.5625 63.835938 77.597656 63.707031 77.597656 63.5625 C 77.597656 63.425781 77.5625 63.296875 77.484375 63.179688 C 77.410156 63.066406 77.3125 62.984375 77.1875 62.933594 C 77.066406 62.886719 76.863281 62.863281 76.582031 62.863281 Z M 75.847656 62.863281 "/>
<path style=" stroke:none;fill-rule:nonzero;fill:rgb(100%,100%,100%);fill-opacity:1;" d="M 61.398438 58.121094 L 60.847656 58.648438 C 60.472656 58.25 60.046875 58.054688 59.578125 58.054688 C 59.183594 58.054688 58.847656 58.1875 58.574219 58.460938 C 58.304688 58.730469 58.167969 59.066406 58.167969 59.460938 C 58.167969 59.738281 58.230469 59.984375 58.347656 60.199219 C 58.46875 60.414062 58.640625 60.582031 58.859375 60.707031 C 59.078125 60.828125 59.324219 60.890625 59.59375 60.890625 C 59.820312 60.890625 60.03125 60.847656 60.222656 60.761719 C 60.410156 60.675781 60.621094 60.519531 60.847656 60.292969 L 61.382812 60.851562 C 61.078125 61.152344 60.785156 61.359375 60.515625 61.476562 C 60.242188 61.589844 59.929688 61.648438 59.578125 61.648438 C 58.933594 61.648438 58.40625 61.445312 57.996094 61.035156 C 57.582031 60.625 57.378906 60.101562 57.378906 59.460938 C 57.378906 59.046875 57.472656 58.679688 57.660156 58.359375 C 57.847656 58.035156 58.113281 57.777344 58.464844 57.582031 C 58.8125 57.386719 59.1875 57.289062 59.589844 57.289062 C 59.933594 57.289062 60.261719 57.359375 60.582031 57.503906 C 60.898438 57.648438 61.171875 57.855469 61.398438 58.121094 "/>
<path style=" stroke:none;fill-rule:nonzero;fill:rgb(100%,100%,100%);fill-opacity:1;" d="M 63.472656 57.394531 L 64.277344 57.394531 L 65.875 61.542969 L 65.050781 61.542969 L 64.726562 60.6875 L 63.03125 60.6875 L 62.695312 61.542969 L 61.871094 61.542969 Z M 63.878906 58.492188 L 63.324219 59.917969 L 64.433594 59.917969 Z M 63.878906 58.492188 "/>
<path style=" stroke:none;fill-rule:nonzero;fill:rgb(100%,100%,100%);fill-opacity:1;" d="M 66.597656 57.394531 L 67.390625 57.394531 L 67.390625 60.792969 L 68.542969 60.792969 L 68.542969 61.542969 L 66.597656 61.542969 Z M 66.597656 57.394531 "/>
<path style=" stroke:none;fill-rule:nonzero;fill:rgb(100%,100%,100%);fill-opacity:1;" d="M 69.257812 57.394531 L 70.046875 57.394531 L 70.046875 60.792969 L 71.199219 60.792969 L 71.199219 61.542969 L 69.257812 61.542969 Z M 69.257812 57.394531 "/>
<path style=" stroke:none;fill-rule:nonzero;fill:rgb(100%,100%,100%);fill-opacity:1;" d="M 71.859375 57.394531 L 72.644531 57.394531 L 72.644531 61.542969 L 71.859375 61.542969 Z M 71.859375 57.394531 "/>
<path style=" stroke:none;fill-rule:nonzero;fill:rgb(100%,100%,100%);fill-opacity:1;" d="M 73.652344 57.394531 L 74.589844 57.394531 C 75.191406 57.394531 75.640625 57.46875 75.933594 57.617188 C 76.226562 57.765625 76.46875 58.011719 76.660156 58.347656 C 76.847656 58.683594 76.945312 59.078125 76.945312 59.527344 C 76.945312 59.847656 76.890625 60.140625 76.785156 60.410156 C 76.679688 60.675781 76.53125 60.898438 76.34375 61.078125 C 76.15625 61.253906 75.957031 61.375 75.738281 61.445312 C 75.519531 61.511719 75.140625 61.546875 74.601562 61.546875 L 73.652344 61.546875 Z M 74.4375 58.15625 L 74.4375 60.773438 L 74.804688 60.773438 C 75.164062 60.773438 75.425781 60.734375 75.589844 60.648438 C 75.753906 60.566406 75.886719 60.425781 75.992188 60.230469 C 76.09375 60.035156 76.144531 59.792969 76.144531 59.507812 C 76.144531 59.066406 76.023438 58.726562 75.777344 58.484375 C 75.554688 58.265625 75.195312 58.15625 74.707031 58.15625 Z M 74.4375 58.15625 "/>
<path style=" stroke:none;fill-rule:nonzero;fill:rgb(100%,100%,100%);fill-opacity:1;" d="M 79.773438 57.289062 C 80.359375 57.289062 80.867188 57.5 81.289062 57.925781 C 81.710938 58.351562 81.921875 58.871094 81.921875 59.480469 C 81.921875 60.085938 81.714844 60.601562 81.296875 61.019531 C 80.878906 61.441406 80.375 61.648438 79.777344 61.648438 C 79.15625 61.648438 78.636719 61.433594 78.226562 61.003906 C 77.8125 60.570312 77.605469 60.058594 77.605469 59.46875 C 77.605469 59.070312 77.703125 58.707031 77.894531 58.371094 C 78.085938 58.039062 78.351562 57.773438 78.6875 57.582031 C 79.023438 57.386719 79.386719 57.289062 79.773438 57.289062 M 79.765625 58.0625 C 79.378906 58.0625 79.058594 58.195312 78.796875 58.460938 C 78.535156 58.730469 78.402344 59.070312 78.402344 59.480469 C 78.402344 59.941406 78.566406 60.304688 78.898438 60.570312 C 79.152344 60.78125 79.449219 60.882812 79.777344 60.882812 C 80.152344 60.882812 80.472656 60.75 80.738281 60.476562 C 81 60.207031 81.132812 59.871094 81.132812 59.476562 C 81.132812 59.082031 81 58.746094 80.734375 58.472656 C 80.46875 58.199219 80.144531 58.0625 79.765625 58.0625 "/>
<path style=" stroke:none;fill-rule:nonzero;fill:rgb(100%,100%,100%);fill-opacity:1;" d="M 84.960938 57.957031 L 84.378906 58.472656 C 84.171875 58.1875 83.960938 58.042969 83.75 58.042969 C 83.644531 58.042969 83.5625 58.074219 83.496094 58.128906 C 83.429688 58.183594 83.394531 58.246094 83.394531 58.316406 C 83.394531 58.386719 83.417969 58.453125 83.464844 58.511719 C 83.53125 58.597656 83.722656 58.773438 84.046875 59.046875 C 84.347656 59.300781 84.53125 59.457031 84.59375 59.523438 C 84.753906 59.6875 84.867188 59.839844 84.933594 59.988281 C 85.003906 60.136719 85.035156 60.296875 85.035156 60.472656 C 85.035156 60.8125 84.917969 61.09375 84.683594 61.316406 C 84.449219 61.539062 84.140625 61.648438 83.761719 61.648438 C 83.464844 61.648438 83.207031 61.578125 82.988281 61.433594 C 82.769531 61.289062 82.582031 61.058594 82.425781 60.75 L 83.089844 60.347656 C 83.289062 60.714844 83.519531 60.898438 83.777344 60.898438 C 83.914062 60.898438 84.027344 60.859375 84.121094 60.78125 C 84.214844 60.699219 84.257812 60.609375 84.257812 60.507812 C 84.257812 60.414062 84.226562 60.316406 84.15625 60.222656 C 84.085938 60.128906 83.929688 59.984375 83.695312 59.792969 C 83.242188 59.421875 82.949219 59.140625 82.816406 58.9375 C 82.6875 58.738281 82.621094 58.539062 82.621094 58.339844 C 82.621094 58.050781 82.730469 57.804688 82.949219 57.597656 C 83.167969 57.390625 83.4375 57.289062 83.761719 57.289062 C 83.96875 57.289062 84.164062 57.335938 84.351562 57.433594 C 84.542969 57.527344 84.742188 57.703125 84.960938 57.957031 "/>
<path style=" stroke:none;fill-rule:nonzero;fill:url(#linear0);" d="M 50.773438 62.820312 L 52.46875 62.820312 L 52.46875 64.515625 L 50.773438 64.515625 Z M 50.773438 62.820312 "/>
<g clip-path="url(#clip1)" clip-rule="nonzero">
<path style=" stroke:none;fill-rule:nonzero;fill:url(#linear1);" d="M 53.316406 63.667969 L 51.621094 65.367188 L 49.921875 63.667969 L 51.621094 61.972656 Z M 53.316406 63.667969 "/>
</g>
<path style=" stroke:none;fill-rule:nonzero;fill:rgb(100%,100%,100%);fill-opacity:1;" d="M 49.066406 61.121094 L 50.765625 61.121094 L 50.765625 62.820312 L 49.066406 62.820312 Z M 49.066406 61.121094 "/>
<path style=" stroke:none;fill-rule:nonzero;fill:url(#linear2);" d="M 52.453125 64.515625 L 54.164062 64.515625 L 54.164062 66.214844 L 52.453125 66.214844 Z M 52.453125 64.515625 "/>
<g clip-path="url(#clip2)" clip-rule="nonzero">
<path style=" stroke:none;fill-rule:nonzero;fill:url(#linear3);" d="M 55.023438 65.367188 L 53.308594 67.0625 L 51.59375 65.367188 L 53.308594 63.667969 Z M 55.023438 65.367188 "/>
</g>
<path style=" stroke:none;fill-rule:nonzero;fill:url(#linear4);" d="M 52.476562 59.347656 L 54.171875 59.347656 L 54.171875 61.042969 L 52.476562 61.042969 Z M 52.476562 59.347656 "/>
<g clip-path="url(#clip3)" clip-rule="nonzero">
<path style=" stroke:none;fill-rule:nonzero;fill:url(#linear5);" d="M 55.023438 60.195312 L 53.324219 61.894531 L 51.628906 60.195312 L 53.324219 58.5 Z M 55.023438 60.195312 "/>
</g>
<path style=" stroke:none;fill-rule:nonzero;fill:url(#linear6);" d="M 54.164062 61.042969 L 55.863281 61.042969 L 55.863281 62.742188 L 54.164062 62.742188 Z M 54.164062 61.042969 "/>
<path style=" stroke:none;fill-rule:nonzero;fill:url(#linear7);" d="M 46.578125 54.386719 C 42.378906 54.386719 38.964844 57.800781 38.964844 62 C 38.964844 66.199219 42.378906 69.613281 46.578125 69.613281 L 54.171875 69.613281 L 54.171875 67.894531 L 52.46875 67.894531 L 52.46875 66.203125 L 46.578125 66.203125 C 44.261719 66.203125 42.375 64.316406 42.375 62 C 42.375 59.683594 44.261719 57.796875 46.578125 57.796875 L 54.171875 57.796875 L 54.171875 54.386719 Z M 46.578125 54.386719 "/>
<g clip-path="url(#clip4)" clip-rule="nonzero">
<g clip-path="url(#clip5)" clip-rule="nonzero">
<path style=" stroke:none;fill-rule:nonzero;fill:url(#linear8);" d="M 61.785156 62 L 46.570312 77.21875 L 31.351562 62 L 46.570312 46.78125 Z M 61.785156 62 "/>
</g>
</g>
<path style=" stroke:none;fill-rule:nonzero;fill:rgb(100%,100%,100%);fill-opacity:1;" d="M 50.773438 64.476562 L 52.46875 64.476562 L 52.46875 66.324219 L 50.773438 66.324219 Z M 50.773438 64.476562 "/>
<g clip-path="url(#clip6)" clip-rule="nonzero">
<path style=" stroke:none;fill-rule:nonzero;fill:rgb(100%,100%,100%);fill-opacity:1;" d="M 53.316406 65.398438 L 51.621094 67.25 L 49.921875 65.398438 L 51.621094 63.550781 Z M 53.316406 65.398438 "/>
</g>
</g>
</svg>
